<svg version="1.0" xmlns="http://www.w3.org/2000/svg"
 width="307.000000pt" height="267.000000pt" viewBox="0 0 307.000000 267.000000"
 preserveAspectRatio="xMidYMid meet">
<g transform="translate(0.000000,267.000000) scale(0.100000,-0.100000)"
fill="#000000" stroke="none">
<path d="M130 2355 l0 -225 168 0 168 0 37 38 c33 33 37 44 37 88 0 41 -5 55
-25 74 l-24 23 24 29 c38 45 35 116 -6 163 l-31 35 -174 0 -174 0 0 -225z
m290 90 l0 -35 -85 0 -85 0 0 35 0 35 85 0 85 0 0 -35z m0 -175 l0 -40 -85 0
-85 0 0 40 0 40 85 0 85 0 0 -40z"/>
<path d="M622 2358 l3 -223 58 -3 57 -3 0 91 0 90 80 0 80 0 0 -90 0 -91 58 3
57 3 3 223 2 222 -60 0 -60 0 0 -85 0 -85 -80 0 -80 0 0 85 0 85 -60 0 -60 0
2 -222z"/>
<path d="M1142 2547 l-32 -33 0 -192 0 -192 55 0 54 0 3 63 3 62 77 3 77 3 3
-63 3 -63 58 -3 57 -3 0 194 0 193 -33 32 -33 32 -130 0 -130 0 -32 -33z m238
-127 l0 -60 -80 0 -80 0 0 60 0 60 80 0 80 0 0 -60z"/>
<path d="M1570 2548 c1 -18 34 -118 74 -223 l73 -190 60 -3 60 -3 77 203 c42
112 76 213 76 226 0 22 -3 23 -56 20 l-56 -3 -47 -132 c-25 -72 -48 -134 -51
-137 -3 -3 -28 58 -55 134 l-50 140 -52 0 -53 0 0 -32z"/>
<path d="M2087 2542 l-37 -38 2 -185 3 -184 58 -3 57 -3 0 66 0 65 80 0 80 0
0 -65 0 -66 58 3 57 3 3 189 2 190 -32 33 -32 33 -131 0 -131 0 -37 -38z m243
-122 l0 -60 -80 0 -80 0 0 60 0 60 80 0 80 0 0 -60z"/>
<path d="M2540 2356 l0 -226 55 0 54 0 3 125 3 126 86 -123 86 -123 51 -3 52
-3 0 225 0 226 -60 0 -59 0 -3 -117 -3 -118 -80 115 -80 115 -53 3 -52 3 0
-225z"/>
<path d="M272 1867 l-142 -142 0 -808 0 -807 250 0 250 0 0 265 0 265 340 0
340 0 0 -265 0 -265 250 0 250 0 0 808 0 807 -143 143 -142 142 -555 0 -555 0
-143 -143z m1038 -542 l0 -265 -340 0 -340 0 0 265 0 265 340 0 340 0 0 -265z"/>
<path d="M2130 1820 l0 -190 75 0 75 0 0 -570 0 -570 -75 0 -75 0 0 -190 0
-190 400 0 400 0 0 190 0 190 -75 0 -75 0 0 570 0 570 75 0 75 0 0 190 0 190
-400 0 -400 0 0 -190z"/>
</g>
</svg>
